PathFileType	4	(X/Y/Z)	C:\Users\Basilio\Documents\Thesis Gigler\squatting_fais\c3dfiles\044\SJ_pre1\markers_experimental.trc
DataRate	CameraRate	NumFrames	NumMarkers	Units	OrigDataRate	OrigDataStartFrame	OrigNumFrames
200.000000	200.000000	4	63	mm	200.000000	352	1409
Frame#	Time	FHD			LBHD			RBHD			C7			T10			CLAV			LSHO			LUUPA			LMUPA			LDUPA			LLEP			LMEP			LRAD			LUL			LRFIN			RSHO			RUPA1			RMUPA			RDUPA			RLEP			RMEP			RRAD			RUL			RUFIN			LASI			RASI			USACR			LSACR			RSACR			LTHI1			LTHI2			LTHI3			LTHI4			LLFC			LMFC			LTIB1			LTIB2			LTIB3			LTIB4			LLMAL			LMMAL			LHEE			LMT1			LMT2			LMT5			RTHI			RTHI2			RTHI3			RTHI4			RLFC			RMFC			RTIB1			RTIB2			RTIB3			RTIB4			RLMAL			RMMAL			RHEE			RMT1			RMT2			RMT5			*61			*62			
		X1	Y1	Z1	X2	Y2	Z2	X3	Y3	Z3	X4	Y4	Z4	X5	Y5	Z5	X6	Y6	Z6	X7	Y7	Z7	X8	Y8	Z8	X9	Y9	Z9	X10	Y10	Z10	X11	Y11	Z11	X12	Y12	Z12	X13	Y13	Z13	X14	Y14	Z14	X15	Y15	Z15	X16	Y16	Z16	X17	Y17	Z17	X18	Y18	Z18	X19	Y19	Z19	X20	Y20	Z20	X21	Y21	Z21	X22	Y22	Z22	X23	Y23	Z23	X24	Y24	Z24	X25	Y25	Z25	X26	Y26	Z26	X27	Y27	Z27	X28	Y28	Z28	X29	Y29	Z29	X30	Y30	Z30	X31	Y31	Z31	X32	Y32	Z32	X33	Y33	Z33	X34	Y34	Z34	X35	Y35	Z35	X36	Y36	Z36	X37	Y37	Z37	X38	Y38	Z38	X39	Y39	Z39	X40	Y40	Z40	X41	Y41	Z41	X42	Y42	Z42	X43	Y43	Z43	X44	Y44	Z44	X45	Y45	Z45	X46	Y46	Z46	X47	Y47	Z47	X48	Y48	Z48	X49	Y49	Z49	X50	Y50	Z50	X51	Y51	Z51	X52	Y52	Z52	X53	Y53	Z53	X54	Y54	Z54	X55	Y55	Z55	X56	Y56	Z56	X57	Y57	Z57	X58	Y58	Z58	X59	Y59	Z59	X60	Y60	Z60	X61	Y61	Z61	X62	Y62	Z62	X63	Y63	Z63	

353	1.76	-238.6638183593751	1758.770751953125	-883.340759277344	-365.5286560058594	1722.03125	-970.1573486328127	-418.7981262207032	1703.339965820313	-814.0764160156252	-441.3088378906251	1534.220092773438	-902.8701782226565	-473.0673828125001	1232.33984375	-908.272155761719	-305.8212585449219	1484.679321289063	-892.7896728515627	-341.0071105957032	1531.426513671875	-1076.56005859375	-418.0345153808595	1359.304565429688	-1219.915649414063	-384.971160888672	1320.7041015625	-1214.586303710938	-428.6848754882814	1298.234375	-1251.001708984375	-427.8312988281251	1239.075927734375	-1265.027221679688	-493.5862121582032	1231.753784179688	-1212.239379882813	-383.3684997558594	1003.419555664063	-1115.379516601563	-344.1096801757813	991.0760498046877	-1171.1455078125	-325.9535522460938	1014.141052246094	-1082.414184570313	-376.4219970703126	1505.814453125	-701.7257080078126	-464.6448364257814	1340.32275390625	-574.3621826171876	-431.734832763672	1302.057250976563	-571.6791381835939	-476.7185058593751	1279.768676757813	-540.0895385742189	-471.9397277832032	1218.079956054688	-523.7700195312501	-537.0923461914064	1204.7685546875	-580.9016723632814	-392.2799682617189	1007.851440429688	-689.0718383789064	-372.4376525878907	979.0083007812502	-623.6605224609376	-325.8971252441407	999.7099609375002	-720.3085327148439	-284.0120239257813	1029.468017578125	-1017.073181152344	-280.5075073242188	1007.001342773438	-798.0056152343752	-451.1339416503907	1079.486206054688	-900.2777099609377	-457.9545898437501	1047.81787109375	-927.3259887695315	-454.5135498046876	1049.506225585938	-870.5686035156252	-404.8891906738282	807.7647094726565	-1103.0029296875	-380.4365234375001	726.8395385742189	-1104.7373046875	-333.8923339843751	723.8391723632814	-1094.463012695313	-415.5237426757814	677.7979736328126	-1095.152709960938	-421.164276123047	516.9619140625001	-1088.779174804688	-410.6639099121095	500.632537841797	-968.8209228515627	-400.2898864746095	337.1797790527344	-1035.879638671875	-429.9919738769532	297.3550720214844	-1110.447265625	-398.2775268554689	293.0449523925782	-1075.907592773438	-410.6609802246095	212.3847198486329	-1053.702270507813	-461.5629272460939	95.52165985107423	-1109.263549804688	-439.9072570800782	99.47315216064456	-1025.161743164063	-516.8081665039064	48.10829544067384	-1063.249877929688	-300.2812500000001	61.37436676025392	-1049.424682617188	-302.8760986328126	61.56807708740236	-1095.806274414063	-339.8413391113282	41.72160720825196	-1141.80859375	-393.5405578613282	755.5152587890626	-713.7515869140626	-357.0437927246094	698.9072875976564	-709.3764648437501	-324.8144226074219	698.2632446289064	-717.3417358398439	-388.356658935547	620.4195556640626	-720.1963500976564	-401.0913085937501	505.2768859863282	-724.3214111328126	-410.5392456054689	492.732635498047	-847.6242675781252	-366.8952331542969	374.8484191894532	-742.9607543945314	-439.9275817871095	310.6396789550782	-689.5306396484376	-398.6296386718751	300.4057312011719	-707.7634277343751	-392.0888977050782	247.7143707275391	-730.1459350585939	-463.3532104492189	96.30303955078128	-704.5471191406251	-442.8787536621095	99.49661254882815	-787.1340942382815	-515.8369140625001	47.9713478088379	-745.8228759765626	-304.4692993164063	62.87617874145509	-763.0835571289064	-299.9346923828126	60.49757385253908	-726.6044921875001	-334.3828430175782	40.56018829345704	-672.3715209960939	nan	nan	nan	nan	nan	nan	
354	1.765	-238.4646606445313	1758.713500976563	-883.435485839844	-365.3960266113282	1721.940673828125	-970.1939086914065	-418.7457885742189	1703.294189453125	-814.0762939453127	-441.2150878906251	1534.363403320313	-902.8652954101565	-473.1505737304689	1232.392333984375	-908.3189086914065	-305.8280029296876	1484.647705078125	-892.790466308594	-340.8164978027344	1531.45361328125	-1076.496826171875	-418.1078186035157	1359.085815429688	-1219.937622070313	-385.1378479003907	1320.747680664063	-1214.506591796875	-428.7812805175782	1298.309692382813	-1250.997436523438	-427.9307250976564	1239.217041015625	-1264.990600585938	-493.6632080078126	1231.920288085938	-1212.209838867188	-383.4764099121094	1003.472351074219	-1115.388061523438	-344.2177734375001	991.151062011719	-1171.142578125	-326.1309204101563	1014.162475585938	-1082.486938476563	-376.3178710937501	1505.766235351563	-701.6793212890626	-464.6258239746095	1340.303100585938	-574.3172607421876	-431.766815185547	1302.078369140625	-571.6800537109376	-476.7801208496095	1279.789184570313	-540.0779418945314	-471.9588317871095	1218.095581054688	-523.7583618164064	-537.1725463867189	1204.856201171875	-580.8903198242189	-392.2837524414064	1007.855346679688	-689.1054687500001	-372.5353698730469	979.075134277344	-623.7196655273439	-326.0146789550782	999.7507934570315	-720.3477172851564	-284.1626892089844	1029.506469726563	-1017.07861328125	-280.5603637695313	1007.029174804688	-798.025573730469	-451.2418212890626	1079.5048828125	-900.2850341796877	-457.9619445800782	1047.891479492188	-927.3256835937502	-454.8721923828126	1049.718627929688	-870.578552246094	-404.9719238281251	807.7413330078127	-1103.011840820313	-380.4908447265626	726.8593139648439	-1104.7314453125	-333.8563537597657	723.8685302734376	-1094.463134765625	-415.466278076172	677.7725830078126	-1095.192626953125	-420.9951782226564	516.9622802734376	-1088.802124023438	-410.6181030273439	500.5925292968751	-968.8320312500002	-400.1798095703126	337.2023010253907	-1035.883056640625	-429.9168395996095	297.2888488769532	-1110.462524414063	-398.2481689453126	292.9947814941407	-1075.967041015625	-410.6659240722657	212.3772888183594	-1053.728149414063	-461.6127014160157	95.5998001098633	-1109.272216796875	-439.9042053222657	99.43733215332034	-1025.157348632813	-516.8076171875001	48.02382659912111	-1063.20166015625	-300.3231506347657	61.31447982788087	-1049.29052734375	-302.8609313964844	61.56859970092775	-1095.758056640625	-339.8782653808594	41.66538619995118	-1141.814819335938	-393.5342102050782	755.4741821289064	-713.7661132812501	-357.0137023925782	698.9322509765626	-709.3736572265626	-324.7804870605469	698.2426147460939	-717.3037719726564	-388.2439270019532	620.3553466796876	-720.1530151367189	-400.970916748047	505.3005371093751	-724.3463745117189	-410.4338684082032	492.7161254882814	-847.6208496093752	-366.8397521972657	374.8502807617188	-743.0003051757814	-439.8881835937501	310.6448059082032	-689.5209350585939	-398.5704040527345	300.4457702636719	-707.7756347656251	-392.0364074707032	247.7327728271485	-730.1615600585939	-463.3435974121095	96.25844573974612	-704.5267333984376	-442.8573303222657	99.50836181640628	-787.114196777344	-515.8645019531251	47.98270416259766	-745.8818969726564	-304.4571533203126	62.92320632934572	-763.0792236328126	-299.9501037597657	60.52650070190431	-726.6063842773439	-334.3679199218751	40.5471305847168	-672.3660888671876	nan	nan	nan	nan	nan	nan	
355	1.77	-238.2341766357422	1758.671875	-883.4768066406252	-365.2592773437501	1721.9453125	-970.2152099609377	-418.665496826172	1703.28857421875	-814.0690917968752	-441.1497497558595	1534.343139648438	-902.8458251953127	-473.2392883300782	1232.370483398438	-908.2534179687502	-305.8185729980469	1484.607421875	-892.7843017578127	-340.6888732910157	1531.374877929688	-1076.557495117188	-418.0496215820314	1359.401977539063	-1219.909790039063	-385.2144470214845	1320.7431640625	-1214.483276367188	-428.8601074218751	1298.376220703125	-1250.975463867188	-427.9732971191407	1239.280883789063	-1265.041015625	-493.7935791015626	1232.056884765625	-1212.21728515625	-383.6990661621094	1003.389099121094	-1115.281860351563	-344.3848571777344	991.2000732421877	-1171.132446289063	-326.2593994140626	1014.225341796875	-1082.442749023438	-376.2509460449219	1505.73681640625	-701.6423950195314	-464.6578979492189	1340.398803710938	-574.3881835937501	-431.759979248047	1302.088256835938	-571.6432495117189	-476.7696838378907	1279.803344726563	-540.0953369140626	-472.0193786621095	1218.229248046875	-523.8218994140626	-537.2548828125001	1204.907836914063	-580.8885498046876	-392.4231567382814	1007.843872070313	-689.0861816406251	-372.6452636718751	979.1380004882815	-623.7747192382814	-326.1674499511719	999.7537231445315	-720.3123168945314	-284.3329772949219	1029.557983398438	-1017.084045410156	-280.6988220214844	1007.011291503906	-798.018981933594	-451.4306945800782	1079.57080078125	-900.2636718750002	-454.607635498047	1047.061157226563	-927.7844848632815	-456.7276000976564	1051.78466796875	-870.6536865234377	-404.9185485839845	807.7286376953127	-1103.052368164063	-380.4597473144532	726.8481445312501	-1104.78466796875	-333.9041137695313	723.9045410156251	-1094.485107421875	-415.3790893554689	677.7228393554689	-1095.212524414063	-420.8582763671876	516.9691162109376	-1088.877685546875	-410.4416503906251	500.5742492675782	-968.9041748046877	-400.0650024414064	337.1249084472657	-1035.844848632813	-429.928436279297	297.2560729980469	-1110.448974609375	-398.2239074707032	292.9612426757813	-1075.912963867188	-410.6469726562501	212.3452301025391	-1053.68359375	-461.6378479003907	95.5996780395508	-1109.292236328125	-439.8590698242189	99.55208587646487	-1025.200561523438	-516.8069458007814	48.10699462890626	-1063.209594726563	-300.4207153320313	61.65610504150392	-1049.807373046875	-302.8493041992188	61.59019088745119	-1095.810302734375	-339.8218078613282	41.74850082397462	-1141.827270507813	-393.5334472656251	755.4717407226564	-713.7545776367189	-356.9780273437501	698.9374389648439	-709.3692626953126	-324.7441101074219	698.2835693359376	-717.3182983398439	-388.1517028808595	620.3118286132814	-720.1954345703126	-400.7854614257814	505.287322998047	-724.3563232421876	-410.3699951171876	492.6940307617189	-847.6167602539065	-366.7552185058594	374.8238525390626	-742.9984130859376	-439.8463745117189	310.6369323730469	-689.5466308593751	-398.5405578613282	300.4379272460938	-707.7993774414064	-391.9931945800782	247.7265777587891	-730.2174072265626	-463.3549804687501	96.26844787597659	-704.5280151367189	-442.8873901367189	99.49290466308597	-787.140319824219	-515.8977661132814	47.98065185546876	-745.8096313476564	-304.4908752441407	62.8215675354004	-763.1007690429689	-299.9469604492188	60.50256347656251	-726.6109008789064	-334.3447875976563	40.55908203125001	-672.3711547851564	nan	nan	nan	nan	nan	nan	
356	1.775	-238.0130615234376	1758.671875	-883.440856933594	-365.0471801757813	1721.924194335938	-970.241638183594	-418.2777404785157	1703.275756835938	-814.1540527343752	-441.0599975585939	1534.346313476563	-902.8502197265627	-473.3105468750001	1232.520263671875	-908.3007812500002	-305.8114929199219	1484.617919921875	-892.764831542969	-340.5893859863282	1531.3701171875	-1076.522338867188	-418.0767517089845	1359.430908203125	-1219.887573242188	-385.304901123047	1320.843627929688	-1214.382202148438	-428.9583129882814	1298.456298828125	-1250.96435546875	-428.1289062500001	1239.366943359375	-1265.009155273438	-493.8879394531251	1232.117065429688	-1212.180419921875	-383.6658935546876	1003.440612792969	-1115.325561523438	-344.5484619140626	991.244567871094	-1171.112915039063	-326.4028930664063	1014.254089355469	-1082.465576171875	-376.1862487792969	1505.76416015625	-701.6510620117189	-464.644256591797	1340.3974609375	-574.3442382812501	-431.8082885742189	1302.084594726563	-571.6586303710939	-476.7317810058595	1279.794799804688	-540.0388183593751	-472.039764404297	1218.324340820313	-523.8510131835939	-537.2544555664064	1204.931396484375	-580.8854980468751	-392.4699096679689	1007.920776367188	-689.1646728515626	-372.7193298339844	979.1838989257815	-623.8066406250001	-326.4146423339844	999.7376098632815	-720.3280639648439	-284.5353393554688	1029.5654296875	-1017.085388183594	-280.8734130859376	1006.901062011719	-798.0299072265627	-451.5738525390626	1079.560546875	-900.2766113281252	-458.0093688964845	1047.984008789063	-927.3615722656252	-455.6743774414064	1050.398681640625	-870.5611572265627	-405.066864013672	807.6936035156252	-1103.075805664063	-380.5016479492188	726.8427124023439	-1104.818969726563	-333.8224487304688	723.9483642578126	-1094.484619140625	-415.3669433593751	677.7581787109376	-1095.27392578125	-420.7798461914064	516.9433593750001	-1088.841064453125	-410.3448181152345	500.4927978515626	-968.879333496094	-400.1259155273439	337.0260314941407	-1035.859130859375	-429.8054504394532	297.2496948242188	-1110.485229492188	-398.1845703125001	292.9071655273438	-1075.8798828125	-410.5886840820314	212.3697509765626	-1053.6357421875	-461.6485900878907	95.61058044433595	-1109.326538085938	-439.9277648925782	99.48542785644534	-1025.152099609375	-516.7983398437501	48.12607192993165	-1063.251953125	-300.2741394042969	61.35014724731447	-1049.2900390625	-302.8538818359376	61.5934295654297	-1095.743774414063	-339.8095703125001	41.72668075561524	-1141.815551757813	-393.4948120117189	755.4373779296876	-713.7238159179689	-356.9871826171876	698.9373168945314	-709.3824462890626	-324.7220764160157	698.3045043945314	-717.3727416992189	-388.1079406738282	620.3121337890626	-720.2305908203126	-400.6959533691407	505.2847900390626	-724.3766479492189	-410.2116088867189	492.6771240234376	-847.619079589844	-366.7026672363282	374.7947387695313	-742.9758300781251	-439.779998779297	310.6198730468751	-689.4698486328126	-398.4879455566407	300.4077453613282	-707.8410034179689	-391.9068603515626	247.6877899169922	-730.1987915039064	-463.295623779297	96.24500274658206	-704.5118408203126	-442.865692138672	99.50225067138675	-787.1314697265627	-515.8561401367189	47.9730339050293	-745.8442993164064	-304.4427490234376	62.89570617675783	-763.0728149414064	-299.9674987792969	60.53616333007814	-726.6336059570314	-334.4025573730469	40.54814910888673	-672.3822021484376	nan	nan	nan	nan	nan	nan	
